# xmcd CD database file
#
# Track frame offsets:
#	150
#	10511
#	20897
#	33870
#	50593
#	64142
#	76801
#	84314
#
# Disc length: 1301 seconds
#
# Revision: 0
# Processed by: cddbd v1.5.2PL0 Copyright (c) Steve Scherf et al.
# Submitted via: CDex 1.79
#
DISCID=54051308
DTITLE=I Citofoni - I Citofoni
DYEAR=2016
DGENRE=Jazz
TTITLE0=Spaghetti A Detroit
TTITLE1=Si Tu Vois Ma Merrs
TTITLE2=In cerea Di Te
TTITLE3=A ghost of chance
TTITLE4=Boum
TTITLE5=After you've gone
TTITLE6=I found a new baby
TTITLE7=Se sapessi some fai
EXTD=YEAR: 2016
EXTT0=
EXTT1=
EXTT2=
EXTT3=
EXTT4=
EXTT5=
EXTT6=
EXTT7=
PLAYORDER=
